# xmcd
#
# Track frame offsets:
#	150
#	15517
#	40634
#	63957
#	73880
#	96039
#	108414
#	125194
#	148199
#	163379
#
# Disc length: 2352 seconds
#
# Revision: 2
# Processed by: cddbd v1.5.2PL0 Copyright (c) Steve Scherf et al.
# Submitted via: EasyCDDAExtractor 2010.6.0.0
#
DISCID=90092e0a
DTITLE=Various Artist - CD 1
DYEAR=2004
DGENRE=Blues
TTITLE0=B.B. King - How Blue Can You Get?
TTITLE1=Canned Heat - Bullfrog Blues
TTITLE2=Pee Wee Crayton - Blues After Hours
TTITLE3=Dr. John - Woman Is The Root Of All Evil
TTITLE4=James Cotton Band - Boogie Thang
TTITLE5=Ike and Tina Turner - 3:00 In The Morning Blues
TTITLE6=Johnny Otis - Low Down Dirty Dog Blues
TTITLE7=Johnny Mayall - Baby What You Want Me To Do
TTITLE8=Mississippi Fred McDowell - Big Fat Mama
TTITLE9=Big Maybelle - I Won't Cry Anymore
EXTD=YEAR: 2004
EXTT0=
EXTT1=
EXTT2=
EXTT3=
EXTT4=
EXTT5=
EXTT6=
EXTT7=
EXTT8=
EXTT9=
PLAYORDER=
